<svg width="103" height="107" viewBox="0 0 103 107" fill="none" xmlns="http://www.w3.org/2000/svg">
<path d="M36.5546 62.668C36.9416 62.3177 37.2728 61.8302 37.7269 61.6399C40.7654 60.3627 41.8011 58.0564 40.5423 55.1462C40.2894 54.5598 39.9143 54.0285 39.5938 53.4731C37.5977 49.976 34.6712 48.1751 30.814 48.0705C30.8761 47.8864 30.8918 47.5815 31.0021 47.5454C35.2374 46.1363 35.2109 46.153 33.1086 42.2042C29.4342 35.3073 26.0423 28.2852 24.092 20.6628C23.4626 18.2049 23.0347 15.3613 25.0989 13.8305C27.0884 12.3565 29.3684 14.1012 31.1948 15.4514C35.9668 18.9775 39.7166 23.5258 43.5838 27.9554C44.6388 29.1649 45.5555 30.4927 46.6109 31.6992C47.2242 32.4027 47.807 33.3729 48.9318 33.1878C50.1969 32.9833 49.9359 31.7539 50.2746 30.9006C52.9968 24.0548 55.7227 17.2036 60.0409 11.149C60.4711 10.546 61.0211 10.0157 61.5644 9.50831C62.4832 8.64878 63.338 7.44183 64.837 8.01767C66.2097 8.54355 66.4777 9.82177 66.6614 11.1612C67.0289 13.84 66.9253 16.4976 66.5785 19.1642C65.6778 26.0791 64.1637 32.8546 62.358 39.5866C61.2518 43.7052 61.5315 43.8601 65.8721 43.778C66.9287 43.7581 68.0147 43.6863 69.2213 44.4304C67.7916 45.2564 66.4471 44.741 65.1639 44.7218C60.8877 44.6619 58.4644 48.2425 60.6368 51.8444C62.15 54.3564 63.1452 57.1978 65.6268 59.2133C67.1998 60.4874 66.9377 63.072 68.0229 64.9727C72.1107 72.1414 75.6911 79.5725 77.2958 87.7725C77.6688 89.6853 78.1635 91.7904 76.2156 93.0592C74.3015 94.3035 72.467 93.134 70.8668 92.0497C64.4808 87.7324 59.704 81.8001 54.9532 75.8719C52.3888 72.6702 52.205 72.5873 50.6265 76.3919C48.0018 82.719 45.3826 89.05 41.5835 94.7873C40.334 96.6745 39.1485 99.5479 36.4113 98.6884C33.5687 97.7972 33.8157 94.688 34.1195 92.2921C35.2301 83.4767 36.3092 74.6354 38.9298 66.1021C39.6804 63.6549 39.5065 62.2902 36.5243 62.6512L36.5609 62.666L36.5546 62.668ZM51.715 45.3269C53.6902 43.4178 52.3376 41.8655 51.1244 40.3563C50.6432 39.7604 50.2985 38.5505 49.2299 39.1146C47.7832 39.8782 47.465 41.4093 47.2293 42.9088C47.0116 44.2768 47.6279 44.8673 48.9667 44.9312C49.9201 44.9785 50.8663 45.147 51.8154 45.2593C51.2264 45.4908 50.6102 45.9688 50.052 45.9128C46.5664 45.5549 45.3367 47.6931 44.685 50.5499C44.4254 51.6934 44.1605 52.8331 43.9009 53.9766C43.3132 56.581 44.7303 59.997 46.7026 60.7496C49.7643 61.9144 54.5628 60.5114 55.6855 57.9772C56.37 56.4328 56.8748 54.7792 57.2276 53.1252C58.1617 48.7375 56.1545 45.9738 51.718 45.3273L51.715 45.3269ZM53.6356 68.3622C53.2597 70.3676 53.1786 70.6889 53.9111 71.7307C58.9056 78.8467 64.3324 85.5719 71.4605 90.7206C72.6086 91.5509 73.8895 92.4293 75.266 91.4874C76.6729 90.5236 76.1214 89.057 75.8321 87.6679C74.0393 79.0559 69.7506 71.5001 65.9461 63.714C64.5707 60.8986 62.5388 60.6707 59.9459 60.6669C57.3889 60.6628 55.9691 61.8574 55.1833 64.1318C54.6252 65.7441 54.0099 67.3414 53.636 68.3593L53.6356 68.3622ZM24.98 17.8406C25.0452 18.2748 25.0813 19.2475 25.3428 20.1546C27.821 28.7354 31.6894 36.7018 36.0234 44.4797C37.2744 46.7262 39.1666 45.9947 40.816 45.926C42.5614 45.8546 44.5506 45.6758 45.4612 43.7048C47.6183 39.0402 49.1138 34.4434 43.8752 30.643C43.3773 30.2833 43.1176 29.6092 42.6959 29.1272C38.4856 24.2848 34.5497 19.1429 29.0313 15.6562C26.5393 14.0807 25.4252 14.6495 24.977 17.8401L24.98 17.8406ZM64.3509 24.0474C64.6955 20.3448 66.1212 16.7307 65.353 12.9316C65.1363 11.8556 65.8384 10.2572 64.3435 9.84319C62.6654 9.37914 61.9599 10.962 61.2092 12.0781C56.524 19.0322 53.2514 26.6738 50.4145 34.5221C50.0525 35.521 50.1974 36.4304 50.7622 37.2694C52.0144 39.134 53.3065 40.9722 54.5755 42.8246C55.4982 44.1712 56.7803 44.3484 58.2646 44.0415C59.6382 43.7557 60.1327 42.8048 60.4221 41.5675C61.7799 35.7371 63.8434 30.0668 64.3518 24.0416L64.3509 24.0474ZM37.3635 81.0616C36.708 85.1802 35.9937 89.2925 35.4284 93.4256C35.2384 94.807 35.4087 96.4934 36.8994 96.9903C38.3989 97.4887 39.0989 95.884 39.7596 94.864C43.2463 89.477 45.5882 83.5018 48.4826 77.8234C51.0818 72.7249 50.8374 68.9166 47.0615 64.9073C45.8744 63.647 44.9923 61.9696 42.9949 62.2933C41.0711 62.6049 40.8283 64.5241 40.3209 65.9684C38.6087 70.8381 38.0968 75.9853 37.3664 81.062L37.3635 81.0616ZM52.2441 61.8972C50.9867 62.4283 48.4785 60.6741 48.1865 63.2211C47.9765 65.047 49.5658 67.3055 51.2998 67.5487C53.3492 67.8361 53.0221 65.1099 53.7452 63.7358C54.3216 62.6457 53.6834 61.9293 52.2436 61.9001L52.2441 61.8972ZM43.4682 49.9444C43.5282 48.6676 44.4487 46.9339 42.3169 46.9587C41.1569 46.9711 38.9813 46.3711 38.8481 48.2391C38.7174 50.1104 39.7702 52.4029 41.5685 52.8801C43.4129 53.3677 42.7973 50.8971 43.4682 49.9444ZM58.8236 59.7302C59.9768 59.4601 62.0355 60.4205 62.1052 58.426C62.1689 56.6007 61.178 54.0883 59.4564 53.8232C57.5451 53.5309 58.2441 56.2834 57.4829 57.559C56.7577 58.7776 57.3749 59.5503 58.8212 59.7268L58.8236 59.7302Z" fill="#BABABA"/>
<path d="M18.8792 51.1166C15.9888 52.1757 13.0894 53.2154 10.207 54.2995C8.6737 54.8762 7.09867 55.5656 7.08093 57.5146C7.06478 59.5475 8.9972 59.1627 10.1623 59.6615C13.8949 61.2613 17.8791 61.224 21.8381 61.3826C23.2021 61.4385 24.5552 61.7882 26.3075 62.0671C25.2156 63.2452 24.2286 62.8464 23.4175 62.7292C18.646 62.0504 13.885 61.2866 9.1218 60.5553C7.54571 60.3134 6.19099 59.7307 5.78447 58.0096C5.35692 56.1957 6.62041 55.2328 7.88142 54.398C11.2044 52.1961 14.9541 51.232 18.8766 51.1132L18.8792 51.1166Z" fill="#BABABA"/>
<path d="M84.1899 40.0863C82.4906 39.6994 81.608 38.7949 81.9418 37.129C82.2546 35.5761 83.2863 34.6629 84.8896 34.9778C86.3774 35.2683 87.3463 36.2493 87.0461 37.9295C86.7542 39.5573 85.651 40.1696 84.1924 40.0896L84.1899 40.0863Z" fill="#BABABA"/>
<path d="M23.2341 79.8936C24.8262 80.335 25.5321 81.3934 25.1929 82.9809C24.8532 84.5712 23.7332 85.3271 22.1405 85.002C20.5362 84.675 19.8743 83.5072 20.1351 81.9252C20.4238 80.1864 21.7499 79.8991 23.2341 79.8936Z" fill="#BABABA"/>
<path d="M45.2567 21.474C45.6191 19.6097 46.7873 19.151 48.3399 19.428C49.7998 19.6872 50.6173 20.5515 50.3316 22.1027C50.0413 23.683 48.995 24.5939 47.4217 24.3345C45.8891 24.0816 45.1178 22.965 45.26 21.4716L45.2567 21.474Z" fill="#BABABA"/>
<path d="M94.6177 47.1782C97.0348 48.2493 96.9735 49.8153 95.3719 51.1213C91.5888 54.2079 86.9835 55.391 82.2982 56.2896C83.9477 54.7197 86.2471 54.7485 88.1636 53.8269C89.8927 52.9949 91.7363 52.3811 93.4036 51.4497C94.9991 50.5576 96.3741 49.3618 94.6148 47.1777L94.6177 47.1782Z" fill="#BABABA"/>
<path d="M90.6551 45.5835C88.2934 45.8522 86.0227 45.5117 83.8553 44.522C86.2226 44.2184 88.4924 44.5647 90.6551 45.5835Z" fill="#BABABA"/>
<path d="M36.5158 62.6542C34.0004 62.7821 31.4643 63.2648 28.5879 62.0609C31.5935 61.253 34.0692 61.8619 36.5443 62.6618C36.555 62.6694 36.5186 62.6547 36.5186 62.6547L36.5158 62.6542Z" fill="#BABABA"/>
<path d="M50.0108 55.9574C48.4706 55.378 47.6249 54.4286 47.9933 52.7891C48.3368 51.2501 49.3023 50.2279 50.9141 50.6575C52.4372 51.0641 53.575 52.2032 53.1241 53.949C52.7362 55.4481 51.4473 55.9891 50.0108 55.9574Z" fill="#BABABA"/>
</svg>
